<svg xmlns="http://www.w3.org/2000/svg" xmlns:xlink="http://www.w3.org/1999/xlink" width="240" height="47" viewBox="0 0 240 47">
    <defs>
        <path id="a" d="M0 .023h162.604V47H0z"/>
        <path id="c" d="M0 47h240V0H0z"/>
    </defs>
    <g fill="none" fill-rule="evenodd">
        <mask id="b" fill="#fff">
            <use xlink:href="#a"/>
        </mask>
        <path fill="#00363D" d="M156.792 33.206v1.614c0 3.289-2.463 6.945-6.644 6.945-4.22 0-6.644-3.684-6.644-6.945v-1.614h-5.85v1.602c0 7.318 5.201 12.177 12.475 12.192 7.257-.015 12.475-4.859 12.475-12.192v-1.602h-5.812zM13.435 22.282c-.881 1.687-2.096 3.002-3.645 3.932-1.548.935-3.277 1.4-5.193 1.4H0v5.592h4.685c3.093 0 5.864-.7 8.31-2.109 2.445-1.404 4.361-3.374 5.745-5.902 1.387-2.53 2.077-5.387 2.077-8.578 0-3.192-.69-6.05-2.077-8.579-1.384-2.528-3.3-4.498-5.746-5.902C10.55.728 7.778.026 4.684.026H0v5.592h4.597c1.916 0 3.645.466 5.193 1.4 1.549.931 2.764 2.246 3.645 3.932.879 1.682 1.32 3.57 1.326 5.667-.007 2.096-.447 3.984-1.326 5.665zm26.384-5.665c.007-2.098.447-3.985 1.326-5.667.881-1.686 2.096-3 3.645-3.932 1.548-.934 3.277-1.4 5.193-1.4h4.597V.026h-4.685c-3.093 0-5.864.702-8.31 2.11C39.14 3.54 37.224 5.51 35.84 8.038c-1.387 2.529-2.077 5.387-2.077 8.579 0 3.191.69 6.049 2.077 8.578 1.384 2.528 3.3 4.498 5.745 5.902 2.446 1.408 5.217 2.11 8.31 2.11h4.685v-5.593h-4.597c-1.916 0-3.645-.465-5.193-1.4-1.549-.93-2.764-2.245-3.645-3.932-.879-1.68-1.32-3.569-1.326-5.665zM0 19.413h5.747V13.82H0v5.594zM24.512 5.618h5.746V.024h-5.746v5.594zm130.445 20.926c-1.239 1.342-2.83 2.012-4.776 2.012-2.005 0-3.623-.67-4.86-2.012-1.239-1.342-1.86-3.087-1.86-5.235 0-2.144.621-3.889 1.86-5.23 1.237-1.342 2.855-2.013 4.86-2.013 1.947 0 3.537.67 4.776 2.013 1.237 1.341 1.854 3.086 1.854 5.23 0 2.148-.617 3.893-1.854 5.235zm6.212-11.404h1.414V9.28c-1.839 0-3.48.87-4.537 2.226a11.826 11.826 0 0 0-1.388-.883c-1.87-1.013-4.032-1.52-6.477-1.52-2.473 0-4.657.507-6.543 1.52a10.9 10.9 0 0 0-4.396 4.269c-1.047 1.834-1.572 3.943-1.572 6.328 0 2.416.525 4.549 1.572 6.398a10.885 10.885 0 0 0 4.396 4.293c1.886 1.012 4.07 1.52 6.543 1.52 2.445 0 4.607-.508 6.477-1.52a10.934 10.934 0 0 0 4.377-4.293c1.047-1.85 1.568-3.982 1.568-6.398 0-2.276-.475-4.304-1.434-6.08zm-28.923-3.601c1.562 1.655 2.344 3.899 2.344 6.73v14.937h-5.792V19.97c0-1.67-.471-2.989-1.414-3.958-.943-.968-2.225-1.453-3.846-1.453-1.916.03-3.425.686-4.53 1.967-1.106 1.283-1.658 2.923-1.658 4.92v11.761h-5.747V9.281h5.747v4.471c1.62-3.07 4.449-4.635 8.487-4.695 2.711 0 4.847.827 6.41 2.482zM107.491 9.28v23.925H101.7V28.78c-1.592 3.101-4.332 4.651-8.223 4.651-2.651 0-4.745-.82-6.276-2.46-1.533-1.639-2.299-3.875-2.299-6.708V9.281h5.79v13.282c0 1.67.45 2.982 1.349 3.935.899.955 2.144 1.432 3.735 1.432 1.827-.03 3.272-.686 4.332-1.968 1.062-1.282 1.592-2.907 1.592-4.875V9.28h5.79zm-28.472 2.258c1.561 1.655 2.342 3.899 2.342 6.73v14.937h-5.79V19.97c0-1.67-.472-2.989-1.415-3.958-.943-.968-2.226-1.453-3.846-1.453-1.916.03-3.434.686-4.553 1.967-1.12 1.283-1.68 2.923-1.68 4.92v11.761H58.33V.023h5.747v13.819c1.62-3.13 4.465-4.725 8.532-4.785 2.71 0 4.847.827 6.41 2.482zM24.512 33.206h5.746V9.281h-5.746v23.925z" mask="url(#b)"/>
        <path fill="#77A300" d="M175.363 6.729H165V3h25v3.729h-10.363V33h-4.274zM202.32 28.812c1.156-.694 1.995-1.68 2.515-2.954V22.71h-6.42c-3.53 0-5.293 1.163-5.293 3.487 0 1.134.447 2.026 1.345 2.678.895.652 2.14.978 3.73.978 1.591 0 2.965-.347 4.123-1.042m4.142-16.516c1.693 1.53 2.538 3.812 2.538 6.845v13.604h-3.948v-2.976c-.694 1.049-1.685 1.849-2.971 2.402-1.288.553-2.814.829-4.578.829-2.574 0-4.635-.61-6.182-1.828-1.547-1.218-2.321-2.82-2.321-4.804 0-1.983.737-3.578 2.212-4.783 1.476-1.204 3.819-1.807 7.029-1.807h6.594v-.807c0-1.757-.52-3.104-1.562-4.04-1.04-.934-2.574-1.402-4.598-1.402-1.36 0-2.69.22-3.991.658-1.302.44-2.401 1.028-3.298 1.765l-1.735-3.061c1.186-.935 2.603-1.65 4.251-2.147 1.649-.495 3.398-.744 5.25-.744 3.182 0 5.618.766 7.31 2.296M228.216 33l-6.716-8.81-6.804 8.81H210l9.174-11.76L210.439 10h4.696l6.409 8.288L227.908 10h4.609l-8.779 11.24L233 33z"/>
        <mask id="d" fill="#fff">
            <use xlink:href="#c"/>
        </mask>
        <path fill="#77A300" d="M234.785 33h4.43V9.895h-4.43V33zm.07-28.335c-.57-.524-.855-1.163-.855-1.918 0-.756.284-1.403.855-1.94C235.423.268 236.138 0 237 0c.86 0 1.576.255 2.146.763.569.509.854 1.14.854 1.896 0 .785-.285 1.446-.854 1.984-.57.538-1.285.806-2.146.806-.862 0-1.577-.261-2.145-.784z" mask="url(#d)"/>
    </g>
</svg>
