<svg width="50" height="51" viewBox="0 0 50 51" fill="none" xmlns="http://www.w3.org/2000/svg">
<path d="M44.2199 9.87575C36.1056 -1.00156 20.7296 -3.2321 9.86457 4.8777C-1.00043 12.9875 -3.22844 28.3947 4.87217 39.272C11.2399 47.8087 22.1049 51.0168 31.7321 48.0703C31.7596 48.0565 31.7733 48.0565 31.8009 48.0565C35.5692 46.8448 41.2768 51.6777 43.5185 50.0117C45.7603 48.3319 42.7484 41.4888 44.9764 38.2118C44.9901 38.1981 45.0039 38.1705 45.0176 38.1568C50.5739 29.7578 50.5877 18.4261 44.2199 9.87575Z" fill="#02B875"/>
<path d="M39.6815 28.4635C38.8013 28.133 37.8248 28.5736 37.4947 29.4548C35.473 34.8246 30.2743 38.4183 24.553 38.4183C18.8317 38.4183 13.6192 34.8109 11.6113 29.4548C11.2812 28.5736 10.3047 28.133 9.42451 28.4635C8.54431 28.7939 8.10421 29.7715 8.43428 30.6527C10.9374 37.3306 17.4151 41.8192 24.553 41.8192C31.6771 41.8192 38.1549 37.3306 40.6717 30.6527C40.988 29.7715 40.5479 28.7939 39.6815 28.4635Z" fill="white"/>
</svg>
